<svg width="25" height="24" viewBox="0 0 25 24" fill="none" xmlns="http://www.w3.org/2000/svg">
<path d="M17.1887 3.31381H20.5019C21.1043 3.31381 21.5728 3.78243 21.5728 4.38494V5.15481C21.5728 5.6569 21.2047 6.12552 20.7362 6.22594V22.1255C20.7362 23.1632 19.8661 24 18.7951 24H5.20771C4.13679 24 3.30012 23.1632 3.30012 22.1255V6.22594C2.83159 6.12552 2.42999 5.6569 2.42999 5.15481V4.38494C2.42999 3.78243 2.93199 3.31381 3.53439 3.31381H6.81411V1.90795C6.81411 0.870293 7.65077 0 8.7217 0H15.2811C16.3521 0 17.1887 0.870293 17.1887 1.90795V3.31381ZM15.2811 1.67364H8.7217C8.55437 1.67364 8.45397 1.77406 8.45397 1.90795V3.31381H15.5489V1.90795C15.5489 1.77406 15.4485 1.67364 15.2811 1.67364ZM5.74318 21.8577H18.2931C18.427 21.8577 18.5274 21.6904 18.5274 21.5565V6.25941H5.47545V21.5565C5.47545 21.6904 5.57585 21.8577 5.74318 21.8577ZM8.3201 20.6192H8.1193C7.51691 20.6192 7.01491 20.1172 7.01491 19.5146V8.56904C7.01491 8 7.51691 7.53138 8.1193 7.53138H8.3201C8.88903 7.53138 9.39103 8 9.39103 8.56904V19.5146C9.39103 20.1172 8.88903 20.6192 8.3201 20.6192ZM12.1018 20.6192H11.9345C11.3321 20.6192 10.8301 20.1172 10.8301 19.5146V8.56904C10.8301 8 11.3321 7.53138 11.9345 7.53138H12.1018C12.7042 7.53138 13.2062 8 13.2062 8.56904V19.5146C13.2062 20.1172 12.7042 20.6192 12.1018 20.6192ZM15.8835 20.6192H15.7162C15.1138 20.6192 14.6453 20.1172 14.6453 19.5146V8.56904C14.6453 8 15.1138 7.53138 15.7162 7.53138H15.8835C16.4859 7.53138 16.9879 8 16.9879 8.56904V19.5146C16.9879 20.1172 16.4859 20.6192 15.8835 20.6192Z" fill="#A60000"/>
</svg>
